<svg width="500" height="500" xmlns="http://www.w3.org/2000/svg" clip-rule="evenodd" version="1.1">

 <g>
  <title>Layer 1</title>
  <g transform="translate(-1.5024 2.10337)" id="svg_3">
   <path id="svg_4" d="m316.5,154.5c0.336,25.183 1.336,50.183 3,75c0,0.333 0,0.667 0,1c-0.617,0.111 -1.117,0.444 -1.5,1c-0.777,2.929 -0.61,5.763 0.5,8.5c-2.112,1.217 -1.779,2.383 1,3.5c-0.61,0.891 -0.943,1.891 -1,3c-0.897,-1.098 -1.73,-1.098 -2.5,0c-10.926,45.549 -38.259,76.549 -82,93c-36.079,-13.078 -61.412,-37.411 -76,-73c-3.27,-8.415 -5.604,-17.081 -7,-26c-0.717,0.544 -1.217,1.211 -1.5,2c-0.667,0 -1.333,0 -2,0c0.667,-1 1.333,-2 2,-3c0,-1.667 0,-3.333 0,-5c0,-3.667 0,-7.333 0,-11c0.333,-0.667 0.667,-1.333 1,-2c-0.331,-22.506 0.003,-44.84 1,-67c15.671,6.559 32.005,8.725 49,6.5c12.045,-2.443 23.212,-6.943 33.5,-13.5c19.9,13.761 41.733,17.928 65.5,12.5c5.834,-1.374 11.501,-3.207 17,-5.5z" fill="#621eeb"/>
  </g>
  <g id="svg_5">
   <path id="svg_6" d="m316.5,154.5c0.06,-0.543 0.393,-0.876 1,-1c0.667,25.163 1.333,50.163 2,75c0,0.333 0,0.667 0,1c-1.664,-24.817 -2.664,-49.817 -3,-75z" fill="#a984f4"/>
  </g>
  <g id="svg_7">
   <path id="svg_8" d="m151.5,154.5c-0.997,22.16 -1.331,44.494 -1,67c-0.333,0 -0.667,0 -1,0c-0.333,-22.676 0,-45.343 1,-68c0.607,0.124 0.94,0.457 1,1z" fill="#9e73f3"/>
  </g>
  <g id="svg_9">
   <path id="svg_10" d="m307.5,167.5c0.997,21.16 1.331,42.493 1,64c-4.476,38.47 -22.809,68.304 -55,89.5c-6.22,3.528 -12.72,6.361 -19.5,8.5c-10.046,-2.773 -19.213,-7.273 -27.5,-13.5c-26.945,-21.054 -42.611,-48.554 -47,-82.5c-0.331,-22.173 0.003,-44.173 1,-66c25.962,6.73 50.462,3.397 73.5,-10c17.585,11.189 36.752,15.356 57.5,12.5c5.398,-0.517 10.731,-1.351 16,-2.5z" fill="#fcfafe"/>
  </g>
  <g id="svg_11">
   <path id="svg_12" d="m160.5,167.5c-0.997,21.827 -1.331,43.827 -1,66c-1.328,-22.17 -1.328,-44.504 0,-67c0.607,0.124 0.94,0.457 1,1z" fill="#af8df5"/>
  </g>
  <g id="svg_13">
   <path id="svg_14" d="m307.5,167.5c0.06,-0.543 0.393,-0.876 1,-1c1.328,21.83 1.328,43.496 0,65c0.331,-21.507 -0.003,-42.84 -1,-64z" fill="#a57ff3"/>
  </g>
  <g id="svg_15">
   <path id="svg_16" d="m232.5,168.5c5.415,1.871 10.748,4.038 16,6.5c4.875,1.802 9.875,3.135 15,4c12.348,0.649 24.681,0.482 37,-0.5c0.167,17.67 0,35.336 -0.5,53c-4.758,35.699 -22.258,63.199 -52.5,82.5c-4.246,2.542 -8.746,4.376 -13.5,5.5c-12.806,-4.153 -23.972,-10.986 -33.5,-20.5c-17.843,-17.852 -28.676,-39.352 -32.5,-64.5c-0.5,-18.664 -0.667,-37.33 -0.5,-56c19.482,2.739 38.482,0.905 57,-5.5c2.891,-1.274 5.558,-2.774 8,-4.5z" fill="#5f1aeb"/>
  </g>
  <g id="svg_17">
   <path id="svg_18" d="m149.5,223.5c0,3.667 0,7.333 0,11c-1.699,0.16 -3.366,-0.006 -5,-0.5c1.829,-1.113 2.663,-2.613 2.5,-4.5c-2.76,3.707 -6.26,4.707 -10.5,3c1.524,-2.358 3.524,-4.191 6,-5.5c-2.098,0.032 -4.098,0.699 -6,2c-12.456,0.763 -13.123,-1.57 -2,-7c-3.512,0.05 -7.012,0.55 -10.5,1.5c-2.526,-0.065 -4.859,-0.732 -7,-2c-0.617,-0.949 -0.451,-1.782 0.5,-2.5c3.069,-1.846 6.402,-2.846 10,-3c-7.211,0.6 -13.211,-1.734 -18,-7c2.539,-1.047 5.205,-1.547 8,-1.5c3.046,0.339 6.046,0.505 9,0.5c-3.846,-1.632 -7.846,-2.966 -12,-4c-4.033,-1.349 -7.366,-3.682 -10,-7c4.882,-1.555 9.882,-1.888 15,-1c2.534,0.516 4.7,1.683 6.5,3.5c0.507,-1.496 0.007,-2.663 -1.5,-3.5c-10.586,-6.302 -22.086,-9.135 -34.5,-8.5c-2.5,0.167 -5,0.333 -7.5,0.5c9.3433,1.668 18.677,3.335 28,5c-3.657,0.05 -6.99,0.883 -10,2.5c-1.3333,0 -2.6667,0 -4,0c-12.9899,-0.633 -25.9899,-1.133 -39,-1.5c-13.8762,-3.467 -24.0429,-11.301 -30.5,-23.5c13.8417,11.059 29.6751,16.559 47.5,16.5c-17.8001,-2.98 -32.3001,-11.48 -43.5,-25.5c-0.6667,-0.667 -0.6667,-1.333 0,-2c13.8504,14.075 30.6837,22.241 50.5,24.5c15.3966,1.195 30.73,2.861 46,5c2.31,1.637 3.81,3.804 4.5,6.5c-0.095,6.971 1.238,13.638 4,20c3.642,4.148 8.142,6.814 13.5,8z" fill="#f9f6fe"/>
  </g>
  <g id="svg_19">
   <path id="svg_20" d="m371.5,202.5c-1,0 -2,0 -3,0c-3.028,-1.64 -6.361,-2.474 -10,-2.5c9.191,-2.304 18.524,-3.971 28,-5c-15.053,-2.455 -29.053,0.211 -42,8c-1.507,0.837 -2.007,2.004 -1.5,3.5c1.579,-1.541 3.413,-2.708 5.5,-3.5c5.404,-0.772 10.738,-0.439 16,1c-1.333,1.333 -2.667,2.667 -4,4c-5.92,2.642 -11.92,4.975 -18,7c5.678,-0.945 11.344,-0.612 17,1c-4.925,4.868 -10.925,7.201 -18,7c4.27,0.251 7.936,1.751 11,4.5c-2.492,1.887 -5.325,2.887 -8.5,3c-3.197,-0.744 -6.364,-1.244 -9.5,-1.5c11.022,5.329 10.355,7.662 -2,7c-1.902,-1.301 -3.902,-1.968 -6,-2c2.476,1.309 4.476,3.142 6,5.5c-1.921,1.141 -3.921,1.308 -6,0.5c-1.185,-1.353 -2.519,-2.52 -4,-3.5c-0.782,1.829 -0.116,3.329 2,4.5c-1.667,0.333 -3.333,0.667 -5,1c1.238,0.69 1.238,1.19 0,1.5c-2.779,-1.117 -3.112,-2.283 -1,-3.5c-1.11,-2.737 -1.277,-5.571 -0.5,-8.5c0.383,-0.556 0.883,-0.889 1.5,-1c9.418,-1.918 14.918,-7.584 16.5,-17c0.273,-4.729 0.939,-9.396 2,-14c1.167,-1.167 2.333,-2.333 3.5,-3.5c16.566,-2.471 33.232,-4.471 50,-6c18.301,-2.529 33.801,-10.363 46.5,-23.5c0.667,0.667 0.667,1.333 0,2c-5.52,6.185 -11.687,11.685 -18.5,16.5c-8.207,3.464 -16.54,6.464 -25,9c12.778,-0.958 25.112,-3.958 37,-9c3.778,-2.112 7.278,-4.612 10.5,-7.5c-6.457,12.199 -16.624,20.033 -30.5,23.5c-13.354,0.262 -26.687,0.762 -40,1.5z" fill="#f8f5fe"/>
  </g>
  <g id="svg_21">
   <path id="svg_22" d="m424.5,201.5c1.291,-0.237 2.291,0.096 3,1c-14.851,3.246 -29.851,3.912 -45,2c-3.667,-0.667 -7.333,-1.333 -11,-2c13.313,-0.738 26.646,-1.238 40,-1.5c13.876,-3.467 24.043,-11.301 30.5,-23.5c-3.222,2.888 -6.722,5.388 -10.5,7.5c-11.888,5.042 -24.222,8.042 -37,9c8.46,-2.536 16.793,-5.536 25,-9c6.813,-4.815 12.98,-10.315 18.5,-16.5c0.667,-0.667 0.667,-1.333 0,-2c-12.699,13.137 -28.199,20.971 -46.5,23.5c-16.768,1.529 -33.434,3.529 -50,6c-1.167,1.167 -2.333,2.333 -3.5,3.5c-1.061,4.604 -1.727,9.271 -2,14c-1.582,9.416 -7.082,15.082 -16.5,17c0,-0.333 0,-0.667 0,-1c0,-0.333 0,-0.667 0,-1c5.18,-1.832 9.013,-5.165 11.5,-10c0.242,-6.384 0.908,-12.718 2,-19c3.106,-7.142 8.606,-10.642 16.5,-10.5c21.459,-0.642 42.459,-3.975 63,-10c13.742,-4.421 24.575,-12.588 32.5,-24.5c-2.131,10.75 -7.297,19.917 -15.5,27.5c6.503,-2.125 12.336,-5.625 17.5,-10.5c-3.385,10.074 -9.219,18.574 -17.5,25.5c-2.882,1.608 -5.882,2.941 -9,4c1.293,0.49 2.627,0.657 4,0.5z" fill="#6b2cec"/>
  </g>
  <g id="svg_23">
   <path id="svg_24" d="m149.5,221.5c0.333,0 0.667,0 1,0c-0.333,0.667 -0.667,1.333 -1,2c-5.358,-1.186 -9.858,-3.852 -13.5,-8c-2.762,-6.362 -4.095,-13.029 -4,-20c-0.69,-2.696 -2.19,-4.863 -4.5,-6.5c-15.27,-2.139 -30.6034,-3.805 -46,-5c-19.8163,-2.259 -36.6496,-10.425 -50.5,-24.5c-0.6667,0.667 -0.6667,1.333 0,2c11.1999,14.02 25.6999,22.52 43.5,25.5c-17.8249,0.059 -33.6583,-5.441 -47.5,-16.5c6.4571,12.199 16.6238,20.033 30.5,23.5c13.0101,0.367 26.0101,0.867 39,1.5c-3.3333,0.667 -6.6667,1.333 -10,2c-8.3459,-0.019 -16.6792,0.314 -25,1c-8.5249,-0.385 -16.8582,-1.551 -25,-3.5c10.8069,7.916 22.9736,12.083 36.5,12.5c12.0987,-1.726 24.2653,-2.893 36.5,-3.5c-3.029,-2.176 -6.029,-4.343 -9,-6.5c0,-0.667 0,-1.333 0,-2c3.01,-1.617 6.343,-2.45 10,-2.5c-9.323,-1.665 -18.6567,-3.332 -28,-5c2.5,-0.167 5,-0.333 7.5,-0.5c12.414,-0.635 23.914,2.198 34.5,8.5c1.507,0.837 2.007,2.004 1.5,3.5c-1.8,-1.817 -3.966,-2.984 -6.5,-3.5c-5.118,-0.888 -10.118,-0.555 -15,1c2.634,3.318 5.967,5.651 10,7c4.154,1.034 8.154,2.368 12,4c-2.954,0.005 -5.954,-0.161 -9,-0.5c-2.795,-0.047 -5.461,0.453 -8,1.5c4.789,5.266 10.789,7.6 18,7c-3.598,0.154 -6.931,1.154 -10,3c-0.951,0.718 -1.117,1.551 -0.5,2.5c2.141,1.268 4.474,1.935 7,2c3.488,-0.95 6.988,-1.45 10.5,-1.5c-11.123,5.43 -10.456,7.763 2,7c1.902,-1.301 3.902,-1.968 6,-2c-2.476,1.309 -4.476,3.142 -6,5.5c4.24,1.707 7.74,0.707 10.5,-3c0.163,1.887 -0.671,3.387 -2.5,4.5c1.634,0.494 3.301,0.66 5,0.5c0,1.667 0,3.333 0,5c-1.042,-1.291 -2.208,-1.291 -3.5,0c-2.376,4.21 -1.876,5.21 1.5,3c0.667,0 1.333,0 2,0c-1.754,3.134 -4.254,4.134 -7.5,3c-2.855,3.25 -5.855,3.583 -9,1c-1.995,2.247 -4.495,3.247 -7.5,3c0.315,-1.726 0.481,-3.393 0.5,-5c-3.065,3.449 -6.898,5.116 -11.5,5c-0.117,-1.984 0.55,-3.65 2,-5c-0.333,-0.333 -0.667,-0.667 -1,-1c-4.51,2.137 -9.177,2.47 -14,1c1.482,-1.983 3.149,-3.816 5,-5.5c-0.333,-0.167 -0.667,-0.333 -1,-0.5c-6.0629,3.272 -12.3963,3.772 -19,1.5c-0.6667,-0.667 -1.3333,-1.333 -2,-2c1.3333,-1 2.6667,-2 4,-3c-7.4975,0.535 -14.3308,-1.298 -20.5,-5.5c-0.6877,-0.832 -0.521,-1.498 0.5,-2c3.0394,-1.069 6.0394,-2.235 9,-3.5c-9.0314,0.854 -17.198,-1.312 -24.5,-6.5c-0.6172,-0.949 -0.4506,-1.782 0.5,-2.5c5.3943,-1.465 10.7276,-3.131 16,-5c-15.4228,0.121 -27.7562,-5.879 -37,-18c0.3333,-0.167 0.6667,-0.333 1,-0.5c4.8455,1.964 9.8455,2.797 15,2.5c-4.7798,-1.556 -9.1131,-3.889 -13,-7c-6.2112,-6.608 -10.7112,-14.108 -13.5,-22.5c5.1635,4.875 10.9969,8.375 17.5,10.5c-8.6557,-7.293 -13.8223,-16.46 -15.5,-27.5c7.9248,11.912 18.7581,20.079 32.5,24.5c6.8931,2.379 13.8931,4.379 21,6c15.9674,1.95 31.967,3.617 48,5c5.073,1.406 8.573,4.572 10.5,9.5c1.092,6.282 1.758,12.616 2,19c2.487,4.835 6.32,8.168 11.5,10z" fill="#6f31ed"/>
  </g>
  <g id="svg_25">
   <path id="svg_26" d="m96.5,195.5c1.3333,0 2.6667,0 4,0c0,0.667 0,1.333 0,2c-4.6667,0 -9.3333,0 -14,0c3.3333,-0.667 6.6667,-1.333 10,-2z" fill="#a37af3"/>
  </g>
  <g id="svg_27">
   <path id="svg_28" d="m86.5,197.5c4.6667,0 9.3333,0 14,0c2.971,2.157 5.971,4.324 9,6.5c-12.2347,0.607 -24.4013,1.774 -36.5,3.5c-13.5264,-0.417 -25.6931,-4.584 -36.5,-12.5c8.1418,1.949 16.4751,3.115 25,3.5c8.3208,-0.686 16.6541,-1.019 25,-1z" fill="#faf8fe"/>
  </g>
  <g id="svg_29">
   <path id="svg_30" d="m100.5,206.5c1.667,0 3.333,0 5,0c0.244,2.763 1.577,4.929 4,6.5c-8.593,1.752 -17.0931,3.919 -25.5,6.5c-8.5397,1.445 -17.0397,1.278 -25.5,-0.5c-3.0919,-0.934 -3.4253,-2.1 -1,-3.5c14.4019,-3.339 28.7353,-6.339 43,-9z" fill="#f9f6fe"/>
  </g>
  <g id="svg_31">
   <path id="svg_32" d="m368.5,202.5c0,0.667 0,1.333 0,2c-2.971,2.157 -5.971,4.324 -9,6.5c11.922,0.349 23.756,1.515 35.5,3.5c9.813,-0.714 19.313,-2.88 28.5,-6.5c3.272,-1.608 6.272,-3.608 9,-6c-1.765,-0.64 -3.432,-0.473 -5,0.5c-0.709,-0.904 -1.709,-1.237 -3,-1c3.355,-1.051 6.855,-2.051 10.5,-3c0.5,0.333 1,0.667 1.5,1c-9.548,11.473 -21.881,17.306 -37,17.5c5.977,1.709 11.644,3.876 17,6.5c-1.783,1.732 -3.783,3.232 -6,4.5c-6.173,1.932 -12.506,2.932 -19,3c3.461,1.231 6.794,2.731 10,4.5c-6.128,4.652 -13.128,6.818 -21,6.5c1.561,0.941 2.895,2.108 4,3.5c-6.464,3.511 -13.131,3.844 -20,1c-0.333,0.167 -0.667,0.333 -1,0.5c5.987,4.177 5.32,6.011 -2,5.5c-2.954,0.209 -5.621,-0.458 -8,-2c-0.333,0.333 -0.667,0.667 -1,1c1.45,1.35 2.117,3.016 2,5c-4.727,0.452 -8.56,-1.215 -11.5,-5c0.019,1.607 0.185,3.274 0.5,5c-3.005,0.247 -5.505,-0.753 -7.5,-3c-3.145,2.583 -6.145,2.25 -9,-1c-4.777,1.088 -7.61,-0.912 -8.5,-6c0.057,-1.109 0.39,-2.109 1,-3c1.238,-0.31 1.238,-0.81 0,-1.5c1.667,-0.333 3.333,-0.667 5,-1c-2.116,-1.171 -2.782,-2.671 -2,-4.5c1.481,0.98 2.815,2.147 4,3.5c2.079,0.808 4.079,0.641 6,-0.5c-1.524,-2.358 -3.524,-4.191 -6,-5.5c2.098,0.032 4.098,0.699 6,2c12.355,0.662 13.022,-1.671 2,-7c3.136,0.256 6.303,0.756 9.5,1.5c3.175,-0.113 6.008,-1.113 8.5,-3c-3.064,-2.749 -6.73,-4.249 -11,-4.5c7.075,0.201 13.075,-2.132 18,-7c-5.656,-1.612 -11.322,-1.945 -17,-1c6.08,-2.025 12.08,-4.358 18,-7c1.333,-1.333 2.667,-2.667 4,-4c-5.262,-1.439 -10.596,-1.772 -16,-1c-2.087,0.792 -3.921,1.959 -5.5,3.5c-0.507,-1.496 -0.007,-2.663 1.5,-3.5c12.947,-7.789 26.947,-10.455 42,-8c-9.476,1.029 -18.809,2.696 -28,5c3.639,0.026 6.972,0.86 10,2.5z" fill="#7235ed"/>
  </g>
  <g id="svg_33">
   <path id="svg_34" d="m368.5,202.5c1,0 2,0 3,0c3.667,0.667 7.333,1.333 11,2c-4.667,0 -9.333,0 -14,0c0,-0.667 0,-1.333 0,-2z" fill="#a47cf3"/>
  </g>
  <g id="svg_35">
   <path id="svg_36" d="m368.5,204.5c4.667,0 9.333,0 14,0c15.149,1.912 30.149,1.246 45,-2c1.568,-0.973 3.235,-1.14 5,-0.5c-2.728,2.392 -5.728,4.392 -9,6c-9.187,3.62 -18.687,5.786 -28.5,6.5c-11.744,-1.985 -23.578,-3.151 -35.5,-3.5c3.029,-2.176 6.029,-4.343 9,-6.5z" fill="#faf8fe"/>
  </g>
  <g id="svg_37">
   <path id="svg_38" d="m106.5,214.5c3.564,-0.349 6.898,0.317 10,2c-9.496,9.57 -21.1631,14.57 -35,15c-3.9114,0.203 -7.5781,-0.63 -11,-2.5c12.1859,-4.557 24.1859,-9.391 36,-14.5z" fill="#faf8fe"/>
  </g>
  <g id="svg_39">
   <path id="svg_40" d="m363.5,213.5c16.805,2.689 33.472,6.023 50,10c-0.881,1.471 -2.214,2.304 -4,2.5c-8.292,1.405 -16.625,1.738 -25,1c-8.112,-3.111 -16.446,-5.445 -25,-7c2.423,-1.571 3.756,-3.737 4,-6.5z" fill="#fbf8fe"/>
  </g>
  <g id="svg_41">
   <path id="svg_42" d="m275.5,216.5c5.681,-0.077 10.515,1.923 14.5,6c1.938,5.205 0.771,9.705 -3.5,13.5c-6.318,2.689 -11.818,1.523 -16.5,-3.5c-2.44,-6.789 -0.607,-12.122 5.5,-16z" fill="#faf8fe"/>
  </g>
  <g id="svg_43">
   <path id="svg_44" d="m188.5,217.5c9.682,-0.149 14.515,4.517 14.5,14c-3.097,6.632 -8.264,8.799 -15.5,6.5c-9.605,-7.484 -9.271,-14.317 1,-20.5z" fill="#fbf8fe"/>
  </g>
  <g id="svg_45">
   <path id="svg_46" d="m355.5,221.5c4.479,0.036 8.812,0.869 13,2.5c9.886,4.404 19.886,8.404 30,12c-8.974,3.289 -17.974,3.289 -27,0c-4.547,-2.44 -9.213,-4.607 -14,-6.5c-0.935,-2.602 -2.602,-4.602 -5,-6c1.102,-0.676 2.102,-1.342 3,-2z" fill="#faf8fe"/>
  </g>
  <g id="svg_47">
   <path id="svg_48" d="m111.5,223.5c2.657,-0.338 4.99,0.329 7,2c-3.458,2.956 -6.792,6.123 -10,9.5c-6.881,4.443 -14.2141,5.443 -22,3c8.7237,-4.355 17.057,-9.188 25,-14.5z" fill="#f9f6fe"/>
  </g>
  <g id="svg_49">
   <path id="svg_50" d="m122.5,225.5c2.265,-0.059 2.598,0.774 1,2.5c0.259,1.261 0.926,2.261 2,3c-2.692,2.557 -5.025,5.391 -7,8.5c-4.416,3.52 -9.416,5.02 -15,4.5c5.808,-6.86 12.141,-13.027 19,-18.5z" fill="#f8f5fe"/>
  </g>
  <g id="svg_51">
   <path id="svg_52" d="m246.5,227.5c1,0 2,0 3,0c1.95,12.875 -3.383,18.708 -16,17.5c-2.795,-1.793 -5.295,-3.96 -7.5,-6.5c-1.199,-3.226 -1.699,-6.559 -1.5,-10c1,0 2,0 3,0c-0.818,8.005 2.682,12.671 10.5,14c4.31,0.18 6.976,-1.82 8,-6c0.498,-2.982 0.665,-5.982 0.5,-9z" fill="#f6f1fe"/>
  </g>
  <g id="svg_53">
   <path id="svg_54" d="m352.5,230.5c2.427,0.023 4.76,0.523 7,1.5c7.504,4.587 15.171,8.92 23,13c-7.814,2.576 -15.147,1.576 -22,-3c-3.224,-3.727 -6.891,-6.894 -11,-9.5c1.102,-0.676 2.102,-1.342 3,-2z" fill="#f9f6fe"/>
  </g>
  <g id="svg_55">
   <path id="svg_56" d="m126.5,231.5c2.027,-0.162 4.027,0.005 6,0.5c-2.943,5.211 -6.61,9.878 -11,14c-1.544,1.187 -3.211,1.52 -5,1c3.163,-5.319 6.496,-10.485 10,-15.5z" fill="#f8f5fe"/>
  </g>
  <g id="svg_57">
   <path id="svg_58" d="m344.5,233.5c0.06,-0.543 0.393,-0.876 1,-1c2.13,0.967 4.13,2.134 6,3.5c4.3,5.301 8.966,10.301 14,15c-5.609,0.631 -10.609,-0.869 -15,-4.5c-1.975,-3.109 -4.308,-5.943 -7,-8.5c1.966,-1.347 2.299,-2.847 1,-4.5z" fill="#f8f5fe"/>
  </g>
  <g id="svg_59">
   <path id="svg_60" d="m132.5,234.5c1.695,0.511 3.361,1.178 5,2c-1.247,2.829 -2.747,5.495 -4.5,8c-1.264,2.107 -3.097,3.107 -5.5,3c1.076,-4.561 2.743,-8.895 5,-13z" fill="#f3ecfd"/>
  </g>
  <g id="svg_61">
   <path id="svg_62" d="m140.5,235.5c1.812,0.271 3.478,0.938 5,2c-1.987,3.82 -4.821,6.82 -8.5,9c-0.5,-0.333 -1,-0.667 -1.5,-1c1.153,-3.639 2.819,-6.972 5,-10z" fill="#f6f1fe"/>
  </g>
  <g id="svg_63">
   <path id="svg_64" d="m336.5,239.5c1.788,-1.122 3.788,-1.289 6,-0.5c3.726,4.728 7.059,9.728 10,15c-1.789,0.52 -3.456,0.187 -5,-1c-4.284,-4.112 -7.951,-8.612 -11,-13.5z" fill="#f8f4fe"/>
  </g>
  <g id="svg_65">
   <path id="svg_66" d="m149.5,239.5c-0.667,1 -1.333,2 -2,3c-3.376,2.21 -3.876,1.21 -1.5,-3c1.292,-1.291 2.458,-1.291 3.5,0z" fill="#f0e9fd"/>
  </g>
  <g id="svg_67">
   <path id="svg_68" d="m326.5,242.5c1.517,0.011 2.684,0.677 3.5,2c2.036,3.102 3.036,6.435 3,10c-4.024,-2.524 -7.191,-5.858 -9.5,-10c1.102,-0.676 2.102,-1.342 3,-2z" fill="#f5f1fe"/>
  </g>
  <g id="svg_69">
   <path id="svg_70" d="m335.5,241.5c3.139,3.724 5.139,8.057 6,13c-2.403,0.107 -4.236,-0.893 -5.5,-3c-1.753,-2.505 -3.253,-5.171 -4.5,-8c1.449,-0.672 2.782,-1.339 4,-2z" fill="#f3edfd"/>
  </g>
  <g id="svg_71">
   <path id="svg_72" d="m319.5,245.5c3.665,0.317 5.165,2.317 4.5,6c-2.127,-1.614 -3.627,-3.614 -4.5,-6z" fill="#f0e9fd"/>
  </g>
 </g>
</svg>

